<svg width="423.5px" height="120.8px" xmlns="http://www.w3.org/2000/svg" viewBox="38.25 14.600000000000001 423.5 120.8" style="background: rgba(0, 0, 0, 0);" preserveAspectRatio="xMidYMid"><defs><filter id="editing-neon" x="-100%" y="-100%" width="300%" height="300%"><feFlood flood-color="#00ff2f" result="flood"></feFlood><feComposite operator="in" in="flood" in2="SourceAlpha" result="color"></feComposite><feFlood flood-color="#00ff2f" result="flood2"></feFlood><feComposite operator="in" in="flood2" in2="SourceAlpha" result="color2"></feComposite><feMorphology operator="dilate" radius="2" in="color" result="dilate"></feMorphology><feGaussianBlur stdDeviation="6" in="color" result="blur1"></feGaussianBlur><feGaussianBlur stdDeviation="2.5" in="color" result="blur2"></feGaussianBlur><feGaussianBlur stdDeviation="1" in="SourceAlpha" result="blur3"></feGaussianBlur><feGaussianBlur stdDeviation="6" in="dilate" result="blur4"></feGaussianBlur><feConvolveMatrix in="color2" result="conv" order="3,3" divisor="1" kernelMatrix="1 1 1  1 1 1  1 1 1"></feConvolveMatrix><feMerge><feMergeNode in="blur1"></feMergeNode><feMergeNode in="blur2"></feMergeNode><feMergeNode in="blur4"></feMergeNode><feMergeNode in="blur3"></feMergeNode><feMergeNode in="blur3"></feMergeNode><feMergeNode in="blur3"></feMergeNode><feMergeNode in="blur3"></feMergeNode><feMergeNode in="conv"></feMergeNode><feMergeNode in="SourceGraphic"></feMergeNode></feMerge></filter></defs><g filter="url(#editing-neon)"><g transform="translate(102.00002774596214, 98.68000030517578)"><path d="M14.62 0.16L14.62 0.16L14.62 0.16Q11.20-0.45 9.41-0.70L9.41-0.70L9.41-0.70Q7.62-0.96 5.73-0.96L5.73-0.96L5.73-0.96Q3.84-0.96 2.88 0L2.88 0L2.88 0Q1.41-1.09 0.64-4.54L0.64-4.54L0.64-4.54Q0.38-5.50 0.38-7.10L0.38-7.10L0.38-7.10Q0.38-10.56 4.35-13.95L4.35-13.95L24.32-30.34L24.32-30.34Q16.06-31.68 12.74-31.68L12.74-31.68L12.74-31.68Q9.41-31.68 6.34-30.21L6.34-30.21L6.34-30.21Q4.61-33.02 4.61-36.29L4.61-36.29L4.61-36.29Q4.61-39.55 7.01-41.22L7.01-41.22L7.01-41.22Q9.41-42.88 13.44-42.88L13.44-42.88L13.44-42.88Q15.23-42.88 17.15-42.62L17.15-42.62L17.15-42.62Q19.07-42.37 20.99-42.11L20.99-42.11L24.77-41.54L24.77-41.54Q26.62-41.28 29.02-41.28L29.02-41.28L29.02-41.28Q31.42-41.28 34.11-41.92L34.11-41.92L34.11-41.92Q36.67-39.68 36.67-35.97L36.67-35.97L36.67-35.97Q36.67-31.49 33.60-29.06L33.60-29.06L11.84-11.65L11.84-11.65Q16.51-10.37 24.26-10.37L24.26-10.37L24.26-10.37Q28.10-10.37 30.53-12.29L30.53-12.29L30.53-12.29Q31.62-10.88 31.90-9.70L31.90-9.70L31.90-9.70Q32.19-8.51 32.19-6.82L32.19-6.82L32.19-6.82Q32.19-5.12 31.62-3.74L31.62-3.74L31.62-3.74Q31.04-2.37 29.82-1.34L29.82-1.34L29.82-1.34Q27.39 0.77 22.02 0.77L22.02 0.77L22.02 0.77Q18.05 0.77 14.62 0.16ZM63.94-10.82L63.94-10.82L63.94-10.82Q65.54-9.73 65.54-7.33L65.54-7.33L65.54-7.33Q65.54-4.93 64.32-3.39L64.32-3.39L64.32-3.39Q63.10-1.86 61.12-0.83L61.12-0.83L61.12-0.83Q57.02 1.28 52.61 1.28L52.61 1.28L52.61 1.28Q48.19 1.28 45.60 0.32L45.60 0.32L45.60 0.32Q43.01-0.64 41.28-2.43L41.28-2.43L41.28-2.43Q37.89-5.82 37.89-12.03L37.89-12.03L37.89-12.03Q37.89-21.70 43.14-27.58L43.14-27.58L43.14-27.58Q48.77-33.92 58.56-33.92L58.56-33.92L58.56-33.92Q64.64-33.92 67.65-31.36L67.65-31.36L67.65-31.36Q69.89-29.44 69.89-26.30L69.89-26.30L69.89-26.30Q69.89-15.04 50.43-15.04L50.43-15.04L50.43-15.04Q50.18-13.38 50.18-11.97L50.18-11.97L50.18-11.97Q50.18-9.02 51.49-7.90L51.49-7.90L51.49-7.90Q52.80-6.78 55.23-6.78L55.23-6.78L55.23-6.78Q57.66-6.78 60.26-7.90L60.26-7.90L60.26-7.90Q62.85-9.02 63.94-10.82ZM50.88-17.79L50.88-17.79L50.88-17.79Q55.42-17.79 58.05-20.61L58.05-20.61L58.05-20.61Q60.67-23.30 60.67-27.58L60.67-27.58L60.67-27.58Q60.67-29.06 60.13-29.86L60.13-29.86L60.13-29.86Q59.58-30.66 58.50-30.66L58.50-30.66L58.50-30.66Q57.41-30.66 56.48-30.24L56.48-30.24L56.48-30.24Q55.55-29.82 54.59-28.42L54.59-28.42L54.59-28.42Q52.22-25.22 50.88-17.79ZM99.14 1.28L99.14 1.28L99.14 1.28Q91.39 1.28 91.39-4.74L91.39-4.74L91.39-4.74Q91.46-6.40 91.97-9.22L91.97-9.22L93.12-15.10L93.12-15.10Q94.85-23.42 94.85-25.28L94.85-25.28L94.85-25.28Q94.85-28.99 92.67-28.99L92.67-28.99L92.67-28.99Q89.02-28.99 87.10-19.46L87.10-19.46L83.33 0L70.46 1.28L77.12-32.70L87.62-33.92L86.59-27.65L86.59-27.65Q89.60-33.92 98.82-33.92L98.82-33.92L98.82-33.92Q103.30-33.92 105.18-32.03L105.18-32.03L105.18-32.03Q107.07-30.14 107.07-25.92L107.07-25.92L107.07-25.92Q107.07-21.95 105.02-12.67L105.02-12.67L105.02-12.67Q104.06-8.51 104.06-6.94L104.06-6.94L104.06-6.94Q104.06-5.38 104.93-4.48L104.93-4.48L104.93-4.48Q105.79-3.58 107.07-3.46L107.07-3.46L107.07-3.46Q106.43-1.28 104.22 0L104.22 0L104.22 0Q102.02 1.28 99.14 1.28ZM137.15-29.57L137.15-29.57L137.15-29.57Q138.11-31.49 138.11-33.28L138.11-33.28L138.11-33.28Q138.11-35.07 137.92-36.06L137.92-36.06L137.92-36.06Q137.73-37.06 137.28-37.82L137.28-37.82L137.28-37.82Q136.32-39.49 134.40-39.49L134.40-39.49L134.40-39.49Q132.03-39.49 130.11-37.76L130.11-37.76L130.11-37.76Q128.06-35.97 128.06-33.15L128.06-33.15L128.06-33.15Q128.06-31.36 129.31-29.98L129.31-29.98L129.31-29.98Q130.56-28.61 132.48-27.33L132.48-27.33L132.48-27.33Q134.40-26.05 136.58-24.77L136.58-24.77L136.58-24.77Q138.75-23.49 140.67-21.95L140.67-21.95L140.67-21.95Q145.09-18.43 145.09-13.70L145.09-13.70L145.09-13.70Q145.09-10.50 143.39-7.78L143.39-7.78L143.39-7.78Q141.70-5.06 138.88-3.07L138.88-3.07L138.88-3.07Q132.74 1.28 124.61 1.28L124.61 1.28L124.61 1.28Q118.02 1.28 114.62-0.86L114.62-0.86L114.62-0.86Q111.23-3.01 111.23-6.27L111.23-6.27L111.23-6.27Q111.23-12.10 115.78-13.57L115.78-13.57L115.78-13.57Q117.06-14.02 119.01-14.02L119.01-14.02L119.01-14.02Q120.96-14.02 123.20-13.18L123.20-13.18L123.20-13.18Q122.18-10.56 122.18-8.19L122.18-8.19L122.18-8.19Q122.18-3.07 125.82-3.07L125.82-3.07L125.82-3.07Q128.19-3.07 130.14-4.80L130.14-4.80L130.14-4.80Q132.10-6.53 132.10-8.48L132.10-8.48L132.10-8.48Q132.10-10.43 130.85-11.84L130.85-11.84L130.85-11.84Q129.60-13.25 127.74-14.37L127.74-14.37L127.74-14.37Q125.89-15.49 123.74-16.58L123.74-16.58L123.74-16.58Q121.60-17.66 119.74-19.20L119.74-19.20L119.74-19.20Q115.39-22.72 115.39-28.35L115.39-28.35L115.39-28.35Q115.39-32 117.18-34.85L117.18-34.85L117.18-34.85Q118.98-37.70 121.86-39.62L121.86-39.62L121.86-39.62Q127.62-43.52 134.69-43.52L134.69-43.52L134.69-43.52Q141.76-43.52 145.18-41.41L145.18-41.41L145.18-41.41Q148.61-39.30 148.61-35.71L148.61-35.71L148.61-35.71Q148.61-32.58 146.18-30.59L146.18-30.59L146.18-30.59Q144.06-28.93 141.50-28.93L141.50-28.93L141.50-28.93Q138.94-28.93 137.15-29.57ZM182.14-7.10L182.14-7.10L182.14-7.10Q182.14-4.29 185.02-3.46L185.02-3.46L185.02-3.46Q184.32-1.09 181.57 0.19L181.57 0.19L181.57 0.19Q179.26 1.28 176.74 1.28L176.74 1.28L176.74 1.28Q174.21 1.28 172.90 0.61L172.90 0.61L172.90 0.61Q171.58-0.06 170.88-1.15L170.88-1.15L170.88-1.15Q169.73-2.82 169.73-5.95L169.73-5.95L169.73-5.95Q169.73-7.81 170.75-12.93L170.75-12.93L171.65-17.79L171.65-17.79Q172.74-23.36 172.74-25.41L172.74-25.41L172.74-25.41Q172.74-28.99 170.75-28.99L170.75-28.99L170.75-28.99Q168.26-28.99 166.66-25.34L166.66-25.34L166.66-25.34Q166.02-23.94 165.57-21.82L165.57-21.82L161.22 0L148.35 1.28L157.38-44.80L170.24-46.08L169.73-43.52L169.73-43.52Q167.94-33.66 166.40-30.34L166.40-30.34L166.40-30.34Q169.98-33.92 176.58-33.92L176.58-33.92L176.58-33.92Q183.55-33.92 184.83-29.31L184.83-29.31L184.83-29.31Q185.28-27.84 185.28-26.56L185.28-26.56L185.28-26.56Q185.28-25.28 185.18-24.29L185.18-24.29L185.18-24.29Q185.09-23.30 184.77-21.50L184.77-21.50L183.94-16.90L182.46-9.66L182.46-9.66Q182.14-8.19 182.14-7.10ZM192.99-1.92L192.99-1.92L192.99-1.92Q191.49-3.58 190.82-6.21L190.82-6.21L190.82-6.21Q190.14-8.83 190.14-13.12L190.14-13.12L190.14-13.12Q190.14-17.41 191.62-21.31L191.62-21.31L191.62-21.31Q193.09-25.22 195.78-28.03L195.78-28.03L195.78-28.03Q201.28-33.92 210.37-33.92L210.37-33.92L210.37-33.92Q213.63-33.92 216-32.83L216-32.83L226.94-33.92L222.21-8.96L222.21-8.96Q222.02-8.19 222.02-6.78L222.02-6.78L222.02-6.78Q222.02-5.38 222.88-4.48L222.88-4.48L222.88-4.48Q223.74-3.58 225.02-3.46L225.02-3.46L225.02-3.46Q224.38-1.28 222.05 0L222.05 0L222.05 0Q219.71 1.28 217.09 1.28L217.09 1.28L217.09 1.28Q214.46 1.28 212.70 0.29L212.70 0.29L212.70 0.29Q210.94-0.70 210.43-2.37L210.43-2.37L210.43-2.37Q209.41-0.77 207.23 0.26L207.23 0.26L207.23 0.26Q205.06 1.28 202.14 1.28L202.14 1.28L202.14 1.28Q199.23 1.28 196.86 0.51L196.86 0.51L196.86 0.51Q194.50-0.26 192.99-1.92ZM206.50-27.90L206.50-27.90L206.50-27.90Q205.76-26.75 205.12-24.80L205.12-24.80L205.12-24.80Q204.48-22.85 203.42-17.63L203.42-17.63L203.42-17.63Q202.37-12.42 202.37-8.70L202.37-8.70L202.37-8.70Q202.37-4.99 202.94-3.90L202.94-3.90L202.94-3.90Q203.52-2.82 204.54-2.82L204.54-2.82L204.54-2.82Q206.59-2.82 208.10-4.77L208.10-4.77L208.10-4.77Q209.60-6.72 210.18-10.18L210.18-10.18L213.57-28.93L213.57-28.93Q212.22-30.08 210.66-30.08L210.66-30.08L210.66-30.08Q209.09-30.08 208.16-29.57L208.16-29.57L208.16-29.57Q207.23-29.06 206.50-27.90ZM250.43-17.98L250.43-17.98L250.43-17.98Q252.74-22.08 252.74-26.24L252.74-26.24L252.74-26.24Q252.74-28.99 250.75-28.99L250.75-28.99L250.75-28.99Q249.22-28.99 247.62-26.37L247.62-26.37L247.62-26.37Q245.95-23.74 245.44-20.35L245.44-20.35L242.11 0L228.86 1.28L235.39-32.64L245.95-33.92L244.80-27.46L244.80-27.46Q247.94-33.92 254.98-33.92L254.98-33.92L254.98-33.92Q258.69-33.92 260.70-32L260.70-32L260.70-32Q262.72-30.08 262.72-26.14L262.72-26.14L262.72-26.14Q262.72-22.21 260.13-19.71L260.13-19.71L260.13-19.71Q257.54-17.22 253.12-17.22L253.12-17.22L253.12-17.22Q251.20-17.22 250.43-17.98ZM289.66-10.82L289.66-10.82L289.66-10.82Q291.26-9.73 291.26-7.33L291.26-7.33L291.26-7.33Q291.26-4.93 290.05-3.39L290.05-3.39L290.05-3.39Q288.83-1.86 286.85-0.83L286.85-0.83L286.85-0.83Q282.75 1.28 278.34 1.28L278.34 1.28L278.34 1.28Q273.92 1.28 271.33 0.32L271.33 0.32L271.33 0.32Q268.74-0.64 267.01-2.43L267.01-2.43L267.01-2.43Q263.62-5.82 263.62-12.03L263.62-12.03L263.62-12.03Q263.62-21.70 268.86-27.58L268.86-27.58L268.86-27.58Q274.50-33.92 284.29-33.92L284.29-33.92L284.29-33.92Q290.37-33.92 293.38-31.36L293.38-31.36L293.38-31.36Q295.62-29.44 295.62-26.30L295.62-26.30L295.62-26.30Q295.62-15.04 276.16-15.04L276.16-15.04L276.16-15.04Q275.90-13.38 275.90-11.97L275.90-11.97L275.90-11.97Q275.90-9.02 277.22-7.90L277.22-7.90L277.22-7.90Q278.53-6.78 280.96-6.78L280.96-6.78L280.96-6.78Q283.39-6.78 285.98-7.90L285.98-7.90L285.98-7.90Q288.58-9.02 289.66-10.82ZM276.61-17.79L276.61-17.79L276.61-17.79Q281.15-17.79 283.78-20.61L283.78-20.61L283.78-20.61Q286.40-23.30 286.40-27.58L286.40-27.58L286.40-27.58Q286.40-29.06 285.86-29.86L285.86-29.86L285.86-29.86Q285.31-30.66 284.22-30.66L284.22-30.66L284.22-30.66Q283.14-30.66 282.21-30.24L282.21-30.24L282.21-30.24Q281.28-29.82 280.32-28.42L280.32-28.42L280.32-28.42Q277.95-25.22 276.61-17.79Z" fill="none" stroke="#e9ffd4" stroke-width="1"></path></g></g><style>text {
  font-size: 64px;
  font-family: Arial Black;
  dominant-baseline: central;
  text-anchor: middle;
}</style></svg>